<svg xmlns="http://www.w3.org/2000/svg" width="820" height="250" viewBox="0 0 820 250" role="img" aria-label="contribution activity landscape">
  <rect width="820" height="250" rx="16" fill="#0B1220"/>
  <rect x="1" y="1" width="818" height="248" rx="15" fill="none" stroke="#3C4E6B" stroke-opacity="0.35" stroke-width="1"/>
  <path d="M 46.0 40.0 L 49.5 39.8 L 52.9 39.7 L 56.4 39.5 L 59.8 39.4 L 63.3 39.2 L 66.7 39.0 L 70.2 38.9 L 73.6 38.8 L 77.1 38.6 L 80.5 38.5 L 84.0 38.4 L 87.4 38.3 L 90.9 38.2 L 94.3 38.1 L 97.8 38.0 L 101.2 38.0 L 104.7 37.9 L 108.1 37.9 L 111.6 37.8 L 115.0 37.8 L 118.5 37.8 L 121.9 37.8 L 125.4 37.8 L 128.8 37.9 L 132.3 37.9 L 135.7 37.9 L 139.2 38.0 L 142.6 38.1 L 146.1 38.2 L 149.5 38.3 L 153.0 38.4 L 156.4 38.5 L 159.9 38.6 L 163.3 38.7 L 166.8 38.9 L 170.2 39.0 L 173.7 39.2 L 177.1 39.3 L 180.6 39.5 L 184.0 39.6 L 187.5 39.8 L 190.9 40.0 L 194.4 40.1 L 197.8 40.3 L 201.3 40.5 L 204.7 40.6 L 208.2 40.8 L 211.6 40.9 L 215.1 41.1 L 218.5 41.2 L 222.0 41.3 L 225.4 41.5 L 228.9 41.6 L 232.3 41.7 L 235.8 41.8 L 239.2 41.9 L 242.7 42.0 L 246.1 42.0 L 249.6 42.1 L 253.0 42.1 L 256.5 42.2 L 259.9 42.2 L 263.4 42.2 L 266.8 42.2 L 270.3 42.2 L 273.7 42.2 L 277.2 42.1 L 280.6 42.1 L 284.1 42.0 L 287.5 41.9 L 291.0 41.8 L 294.4 41.8 L 297.9 41.7 L 301.3 41.5 L 304.8 41.4 L 308.2 41.3 L 311.7 41.2 L 315.1 41.0 L 318.6 40.9 L 322.0 40.7 L 325.5 40.6 L 328.9 40.4 L 332.4 40.2 L 335.8 40.1 L 339.3 39.9 L 342.7 39.7 L 346.2 39.6 L 349.6 39.4 L 353.1 39.3 L 356.5 39.1 L 360.0 39.0 L 363.4 38.8 L 366.9 38.7 L 370.3 38.6 L 373.8 38.4 L 377.2 38.3 L 380.7 38.2 L 384.1 38.1 L 387.6 38.1 L 391.0 38.0 L 394.5 37.9 L 397.9 37.9 L 401.4 37.8 L 404.8 37.8 L 408.3 37.8 L 411.7 37.8 L 415.2 37.8 L 418.6 37.8 L 422.1 37.9 L 425.5 37.9 L 429.0 38.0 L 432.4 38.1 L 435.9 38.1 L 439.3 38.2 L 442.8 38.3 L 446.2 38.4 L 449.7 38.6 L 453.1 38.7 L 456.6 38.8 L 460.0 39.0 L 463.5 39.1 L 466.9 39.3 L 470.4 39.4 L 473.8 39.6 L 477.3 39.7 L 480.7 39.9 L 484.2 40.1 L 487.6 40.2 L 491.1 40.4 L 494.5 40.6 L 498.0 40.7 L 501.4 40.9 L 504.9 41.0 L 508.3 41.2 L 511.8 41.3 L 515.2 41.4 L 518.7 41.5 L 522.1 41.6 L 525.6 41.7 L 529.0 41.7 L 532.5 41.7 L 535.9 41.7 L 539.4 41.8 L 542.8 42.0 L 546.3 42.1 L 549.7 42.2 L 553.2 42.2 L 556.6 42.2 L 560.1 42.2 L 563.5 42.2 L 567.0 42.1 L 570.4 42.1 L 573.9 42.0 L 577.3 42.0 L 580.8 41.9 L 584.2 41.8 L 587.7 41.7 L 591.1 41.6 L 594.6 41.5 L 598.0 41.3 L 601.5 41.2 L 604.9 41.1 L 608.4 40.9 L 611.8 40.8 L 615.3 40.6 L 618.7 40.5 L 622.2 38.2 L 625.6 33.0 L 629.1 27.2 L 632.5 22.5 L 636.0 20.3 L 639.4 19.7 L 642.9 20.3 L 646.3 21.7 L 649.8 24.1 L 653.2 28.3 L 656.7 33.1 L 660.1 37.1 L 663.6 38.5 L 667.0 38.4 L 670.5 38.3 L 673.9 38.2 L 677.4 38.1 L 680.8 38.0 L 684.3 37.9 L 687.7 37.9 L 691.2 37.9 L 694.6 37.8 L 698.1 37.8 L 701.5 37.8 L 705.0 37.8 L 708.4 37.8 L 711.9 37.9 L 715.3 37.9 L 718.8 38.0 L 722.2 38.0 L 725.7 38.1 L 729.1 38.2 L 732.6 37.9 L 736.0 34.3 L 739.5 29.5 L 742.9 25.5 L 746.4 24.1 L 749.8 26.5 L 753.3 31.2 L 756.7 36.2 L 760.2 39.4 L 763.6 39.5 L 767.1 39.7 L 770.5 39.8 L 774.0 40.0 L 774 40.0 L 46 40.0 Z" fill="#0B1220" stroke="#3C4E6B" stroke-width="1.5" stroke-opacity="0.35" stroke-linejoin="round"/>
  <path d="M 46.0 51.1 L 49.5 51.0 L 52.9 51.0 L 56.4 50.9 L 59.8 50.8 L 63.3 50.8 L 66.7 50.7 L 70.2 50.7 L 73.6 50.7 L 77.1 50.7 L 80.5 50.7 L 84.0 50.7 L 87.4 50.7 L 90.9 50.8 L 94.3 50.8 L 97.8 50.9 L 101.2 50.9 L 104.7 51.0 L 108.1 51.1 L 111.6 51.2 L 115.0 51.4 L 118.5 51.5 L 121.9 51.6 L 125.4 51.7 L 128.8 51.9 L 132.3 52.0 L 135.7 52.2 L 139.2 52.4 L 142.6 52.5 L 146.1 52.7 L 149.5 52.8 L 153.0 53.0 L 156.4 53.2 L 159.9 53.3 L 163.3 53.5 L 166.8 53.6 L 170.2 53.8 L 173.7 53.9 L 177.1 54.1 L 180.6 54.2 L 184.0 54.3 L 187.5 54.5 L 190.9 54.6 L 194.4 54.7 L 197.8 54.7 L 201.3 54.8 L 204.7 54.9 L 208.2 54.9 L 211.6 55.0 L 215.1 55.0 L 218.5 55.0 L 222.0 55.1 L 225.4 55.1 L 228.9 55.0 L 232.3 55.0 L 235.8 55.0 L 239.2 54.9 L 242.7 54.9 L 246.1 54.8 L 249.6 54.7 L 253.0 54.6 L 256.5 54.5 L 259.9 54.4 L 263.4 54.3 L 266.8 54.1 L 270.3 54.0 L 273.7 53.9 L 277.2 53.7 L 280.6 53.6 L 284.1 53.4 L 287.5 53.2 L 291.0 53.1 L 294.4 52.9 L 297.9 52.7 L 301.3 52.6 L 304.8 52.4 L 308.2 52.3 L 311.7 52.1 L 315.1 52.0 L 318.6 51.8 L 322.0 51.7 L 325.5 51.5 L 328.9 51.4 L 332.4 51.3 L 335.8 51.2 L 339.3 51.1 L 342.7 51.0 L 346.2 50.9 L 349.6 50.8 L 353.1 50.8 L 356.5 50.7 L 360.0 50.7 L 363.4 50.7 L 366.9 50.7 L 370.3 50.7 L 373.8 50.7 L 377.2 50.7 L 380.7 50.7 L 384.1 50.8 L 387.6 50.8 L 391.0 50.9 L 394.5 51.0 L 397.9 51.1 L 401.4 51.2 L 404.8 51.3 L 408.3 51.4 L 411.7 51.6 L 415.2 51.7 L 418.6 51.8 L 422.1 52.0 L 425.5 52.1 L 429.0 52.3 L 432.4 52.4 L 435.9 52.6 L 439.3 52.8 L 442.8 52.9 L 446.2 53.1 L 449.7 53.3 L 453.1 53.4 L 456.6 53.2 L 460.0 52.9 L 463.5 52.7 L 466.9 52.8 L 470.4 53.2 L 473.8 53.7 L 477.3 54.2 L 480.7 54.5 L 484.2 54.6 L 487.6 54.7 L 491.1 54.8 L 494.5 54.9 L 498.0 54.9 L 501.4 55.0 L 504.9 55.0 L 508.3 55.0 L 511.8 54.8 L 515.2 54.5 L 518.7 54.2 L 522.1 54.0 L 525.6 54.0 L 529.0 54.1 L 532.5 54.2 L 535.9 54.3 L 539.4 54.3 L 542.8 54.4 L 546.3 54.4 L 549.7 54.4 L 553.2 54.3 L 556.6 54.2 L 560.1 54.1 L 563.5 53.9 L 567.0 53.8 L 570.4 53.6 L 573.9 53.5 L 577.3 53.1 L 580.8 52.4 L 584.2 51.2 L 587.7 50.1 L 591.1 49.3 L 594.6 49.4 L 598.0 50.0 L 601.5 50.8 L 604.9 51.4 L 608.4 51.5 L 611.8 51.6 L 615.3 51.3 L 618.7 50.4 L 622.2 48.6 L 625.6 45.7 L 629.1 42.5 L 632.5 39.9 L 636.0 38.6 L 639.4 38.0 L 642.9 38.0 L 646.3 38.8 L 649.8 40.4 L 653.2 43.6 L 656.7 47.2 L 660.1 49.9 L 663.6 50.4 L 667.0 48.7 L 670.5 46.0 L 673.9 43.4 L 677.4 42.2 L 680.8 41.7 L 684.3 41.7 L 687.7 42.2 L 691.2 43.3 L 694.6 45.6 L 698.1 48.3 L 701.5 50.6 L 705.0 51.6 L 708.4 51.3 L 711.9 50.2 L 715.3 49.0 L 718.8 48.8 L 722.2 49.7 L 725.7 51.1 L 729.1 52.2 L 732.6 52.2 L 736.0 50.4 L 739.5 47.6 L 742.9 45.3 L 746.4 44.5 L 749.8 46.1 L 753.3 49.1 L 756.7 52.1 L 760.2 54.0 L 763.6 54.2 L 767.1 54.2 L 770.5 53.7 L 774.0 53.3 L 774 52.9 L 46 52.9 Z" fill="#0B1220" stroke="#3C4E6B" stroke-width="1.5" stroke-opacity="0.40" stroke-linejoin="round"/>
  <path d="M 46.0 63.6 L 49.5 63.6 L 52.9 63.7 L 56.4 63.7 L 59.8 63.8 L 63.3 63.9 L 66.7 64.0 L 70.2 64.1 L 73.6 64.2 L 77.1 64.3 L 80.5 64.5 L 84.0 64.6 L 87.4 64.8 L 90.9 64.9 L 94.3 65.1 L 97.8 65.2 L 101.2 65.4 L 104.7 65.5 L 108.1 65.7 L 111.6 65.9 L 115.0 66.0 L 118.5 66.2 L 121.9 66.4 L 125.4 66.5 L 128.8 66.7 L 132.3 66.8 L 135.7 66.9 L 139.2 67.1 L 142.6 67.2 L 146.1 67.3 L 149.5 67.4 L 153.0 67.5 L 156.4 67.6 L 159.9 67.7 L 163.3 67.8 L 166.8 67.8 L 170.2 67.9 L 173.7 67.9 L 177.1 67.9 L 180.6 67.9 L 184.0 67.9 L 187.5 67.9 L 190.9 67.9 L 194.4 67.8 L 197.8 67.8 L 201.3 67.7 L 204.7 67.6 L 208.2 67.5 L 211.6 67.5 L 215.1 67.3 L 218.5 67.2 L 222.0 67.1 L 225.4 67.0 L 228.9 66.8 L 232.3 66.7 L 235.8 66.5 L 239.2 66.4 L 242.7 66.2 L 246.1 66.1 L 249.6 65.9 L 253.0 65.8 L 256.5 65.6 L 259.9 65.4 L 263.4 65.3 L 266.8 65.1 L 270.3 64.9 L 273.7 64.8 L 277.2 64.7 L 280.6 64.5 L 284.1 64.4 L 287.5 64.3 L 291.0 64.1 L 294.4 64.0 L 297.9 63.9 L 301.3 63.8 L 304.8 63.8 L 308.2 63.7 L 311.7 63.6 L 315.1 63.6 L 318.6 63.5 L 322.0 63.5 L 325.5 63.5 L 328.9 63.5 L 332.4 63.5 L 335.8 63.6 L 339.3 63.6 L 342.7 63.6 L 346.2 63.7 L 349.6 63.8 L 353.1 63.9 L 356.5 64.0 L 360.0 64.1 L 363.4 64.2 L 366.9 64.3 L 370.3 64.4 L 373.8 64.6 L 377.2 64.7 L 380.7 64.9 L 384.1 65.0 L 387.6 65.2 L 391.0 65.3 L 394.5 65.5 L 397.9 65.6 L 401.4 65.8 L 404.8 66.0 L 408.3 66.1 L 411.7 66.3 L 415.2 66.4 L 418.6 66.6 L 422.1 66.7 L 425.5 66.9 L 429.0 67.0 L 432.4 67.2 L 435.9 67.3 L 439.3 67.4 L 442.8 67.5 L 446.2 67.6 L 449.7 67.7 L 453.1 67.6 L 456.6 67.0 L 460.0 66.2 L 463.5 65.6 L 466.9 65.5 L 470.4 65.9 L 473.8 66.7 L 477.3 67.5 L 480.7 67.9 L 484.2 67.8 L 487.6 67.8 L 491.1 67.7 L 494.5 67.7 L 498.0 67.6 L 501.4 67.5 L 504.9 67.4 L 508.3 67.3 L 511.8 66.7 L 515.2 65.9 L 518.7 65.2 L 522.1 64.8 L 525.6 64.7 L 529.0 64.9 L 532.5 65.2 L 535.9 65.4 L 539.4 65.4 L 542.8 65.5 L 546.3 65.5 L 549.7 65.5 L 553.2 65.3 L 556.6 65.2 L 560.1 65.0 L 563.5 64.9 L 567.0 64.7 L 570.4 64.6 L 573.9 64.4 L 577.3 64.0 L 580.8 62.6 L 584.2 60.6 L 587.7 58.5 L 591.1 57.3 L 594.6 57.5 L 598.0 59.1 L 601.5 61.0 L 604.9 62.4 L 608.4 62.7 L 611.8 62.3 L 615.3 61.5 L 618.7 60.8 L 622.2 60.2 L 625.6 59.7 L 629.1 59.2 L 632.5 58.7 L 636.0 58.3 L 639.4 57.8 L 642.9 57.4 L 646.3 57.4 L 649.8 58.3 L 653.2 60.5 L 656.7 63.0 L 660.1 64.4 L 663.6 63.3 L 667.0 59.5 L 670.5 54.5 L 673.9 50.1 L 677.4 47.8 L 680.8 46.9 L 684.3 46.9 L 687.7 47.9 L 691.2 50.1 L 694.6 54.5 L 698.1 59.9 L 701.5 64.5 L 705.0 66.4 L 708.4 65.6 L 711.9 63.2 L 715.3 60.8 L 718.8 60.1 L 722.2 61.3 L 725.7 63.4 L 729.1 65.5 L 732.6 66.5 L 736.0 66.3 L 739.5 65.5 L 742.9 64.7 L 746.4 64.5 L 749.8 65.1 L 753.3 66.2 L 756.7 67.2 L 760.2 67.7 L 763.6 67.4 L 767.1 66.7 L 770.5 65.9 L 774.0 65.4 L 774 65.7 L 46 65.7 Z" fill="#0B1220" stroke="#3C4E6B" stroke-width="1.5" stroke-opacity="0.44" stroke-linejoin="round"/>
  <path d="M 46.0 77.6 L 49.5 77.8 L 52.9 77.9 L 56.4 78.1 L 59.8 78.3 L 63.3 78.4 L 66.7 78.6 L 70.2 78.7 L 73.6 78.9 L 77.1 79.1 L 80.5 79.2 L 84.0 79.4 L 87.4 79.5 L 90.9 79.7 L 94.3 79.8 L 97.8 79.9 L 101.2 80.1 L 104.7 80.2 L 108.1 80.3 L 111.6 80.4 L 115.0 80.5 L 118.5 80.6 L 121.9 80.6 L 125.4 80.7 L 128.8 80.7 L 132.3 80.7 L 135.7 80.8 L 139.2 80.8 L 142.6 80.8 L 146.1 80.7 L 149.5 80.7 L 153.0 80.7 L 156.4 80.6 L 159.9 80.6 L 163.3 80.5 L 166.8 80.4 L 170.2 80.3 L 173.7 80.2 L 177.1 80.1 L 180.6 80.0 L 184.0 79.8 L 187.5 79.7 L 190.9 79.5 L 194.4 79.4 L 197.8 79.2 L 201.3 79.1 L 204.7 78.9 L 208.2 78.8 L 211.6 78.6 L 215.1 78.4 L 218.5 78.3 L 222.0 78.1 L 225.4 77.9 L 228.9 77.8 L 232.3 77.6 L 235.8 77.5 L 239.2 77.4 L 242.7 77.2 L 246.1 77.1 L 249.6 77.0 L 253.0 76.9 L 256.5 76.8 L 259.9 76.7 L 263.4 76.6 L 266.8 76.5 L 270.3 76.5 L 273.7 76.4 L 277.2 76.4 L 280.6 76.4 L 284.1 76.4 L 287.5 76.4 L 291.0 76.4 L 294.4 76.4 L 297.9 76.5 L 301.3 76.5 L 304.8 76.6 L 308.2 76.6 L 311.7 76.7 L 315.1 76.8 L 318.6 76.9 L 322.0 77.0 L 325.5 77.2 L 328.9 77.3 L 332.4 77.4 L 335.8 77.6 L 339.3 77.7 L 342.7 77.9 L 346.2 78.0 L 349.6 78.2 L 353.1 78.4 L 356.5 78.5 L 360.0 78.7 L 363.4 78.8 L 366.9 79.0 L 370.3 79.2 L 373.8 79.3 L 377.2 79.5 L 380.7 79.6 L 384.1 79.8 L 387.6 79.9 L 391.0 80.0 L 394.5 80.1 L 397.9 80.3 L 401.4 80.4 L 404.8 80.4 L 408.3 80.5 L 411.7 80.6 L 415.2 80.7 L 418.6 80.7 L 422.1 80.7 L 425.5 80.8 L 429.0 80.8 L 432.4 80.8 L 435.9 80.8 L 439.3 80.7 L 442.8 80.7 L 446.2 80.6 L 449.7 80.6 L 453.1 80.3 L 456.6 79.4 L 460.0 78.2 L 463.5 77.2 L 466.9 76.9 L 470.4 77.4 L 473.8 78.3 L 477.3 79.2 L 480.7 79.6 L 484.2 79.5 L 487.6 79.3 L 491.1 79.1 L 494.5 79.0 L 498.0 78.8 L 501.4 78.7 L 504.9 78.5 L 508.3 78.3 L 511.8 77.1 L 515.2 75.6 L 518.7 74.2 L 522.1 73.4 L 525.6 73.6 L 529.0 74.3 L 532.5 75.3 L 535.9 75.9 L 539.4 76.3 L 542.8 76.5 L 546.3 76.7 L 549.7 76.7 L 553.2 76.6 L 556.6 76.6 L 560.1 76.5 L 563.5 76.2 L 567.0 75.7 L 570.4 75.1 L 573.9 74.3 L 577.3 73.5 L 580.8 72.4 L 584.2 70.9 L 587.7 69.6 L 591.1 69.0 L 594.6 69.8 L 598.0 71.7 L 601.5 74.0 L 604.9 75.7 L 608.4 76.2 L 611.8 75.8 L 615.3 75.1 L 618.7 74.5 L 622.2 74.2 L 625.6 74.2 L 629.1 74.3 L 632.5 74.2 L 636.0 74.0 L 639.4 73.4 L 642.9 72.8 L 646.3 72.5 L 649.8 73.0 L 653.2 74.6 L 656.7 76.4 L 660.1 77.4 L 663.6 76.6 L 667.0 73.9 L 670.5 70.3 L 673.9 67.0 L 677.4 65.2 L 680.8 64.0 L 684.3 63.6 L 687.7 64.0 L 691.2 65.8 L 694.6 69.8 L 698.1 74.8 L 701.5 79.0 L 705.0 80.6 L 708.4 79.7 L 711.9 77.1 L 715.3 74.5 L 718.8 73.3 L 722.2 73.6 L 725.7 74.4 L 729.1 75.5 L 732.6 76.2 L 736.0 76.7 L 739.5 77.1 L 742.9 77.6 L 746.4 78.0 L 749.8 78.7 L 753.3 79.5 L 756.7 79.9 L 760.2 79.8 L 763.6 78.7 L 767.1 77.0 L 770.5 75.3 L 774.0 74.0 L 774 78.6 L 46 78.6 Z" fill="#0B1220" stroke="#3C4E6B" stroke-width="1.5" stroke-opacity="0.49" stroke-linejoin="round"/>
  <path d="M 46.0 92.4 L 49.5 92.5 L 52.9 92.7 L 56.4 92.8 L 59.8 92.9 L 63.3 93.1 L 66.7 93.2 L 70.2 93.3 L 73.6 93.3 L 77.1 93.4 L 80.5 93.5 L 84.0 93.5 L 87.4 93.6 L 90.9 93.6 L 94.3 93.6 L 97.8 93.6 L 101.2 93.6 L 104.7 93.6 L 108.1 93.6 L 111.6 93.5 L 115.0 93.5 L 118.5 93.4 L 121.9 93.3 L 125.4 93.2 L 128.8 93.1 L 132.3 93.0 L 135.7 92.9 L 139.2 92.8 L 142.6 92.7 L 146.1 92.5 L 149.5 92.4 L 153.0 92.2 L 156.4 92.1 L 159.9 91.9 L 163.3 91.8 L 166.8 91.6 L 170.2 91.4 L 173.7 91.3 L 177.1 91.1 L 180.6 90.9 L 184.0 90.8 L 187.5 90.6 L 190.9 90.5 L 194.4 90.3 L 197.8 90.2 L 201.3 90.1 L 204.7 89.9 L 208.2 89.8 L 211.6 89.7 L 215.1 89.6 L 218.5 89.5 L 222.0 89.5 L 225.4 89.4 L 228.9 89.3 L 232.3 89.3 L 235.8 89.3 L 239.2 89.2 L 242.7 89.2 L 246.1 89.2 L 249.6 89.2 L 253.0 89.3 L 256.5 89.3 L 259.9 89.4 L 263.4 89.4 L 266.8 89.5 L 270.3 89.6 L 273.7 89.7 L 277.2 89.8 L 280.6 89.9 L 284.1 90.0 L 287.5 90.2 L 291.0 90.3 L 294.4 90.4 L 297.9 90.6 L 301.3 90.7 L 304.8 90.9 L 308.2 91.1 L 311.7 91.2 L 315.1 91.4 L 318.6 91.6 L 322.0 91.7 L 325.5 91.9 L 328.9 92.0 L 332.4 92.2 L 335.8 92.3 L 339.3 92.5 L 342.7 92.6 L 346.2 92.8 L 349.6 92.9 L 353.1 93.0 L 356.5 93.1 L 360.0 93.2 L 363.4 93.3 L 366.9 93.4 L 370.3 93.5 L 373.8 93.5 L 377.2 93.6 L 380.7 93.6 L 384.1 93.6 L 387.6 93.6 L 391.0 93.6 L 394.5 93.6 L 397.9 93.6 L 401.4 93.5 L 404.8 93.5 L 408.3 93.4 L 411.7 93.4 L 415.2 93.3 L 418.6 93.2 L 422.1 93.1 L 425.5 93.0 L 429.0 92.9 L 432.4 92.7 L 435.9 92.6 L 439.3 92.4 L 442.8 92.3 L 446.2 92.1 L 449.7 92.0 L 453.1 91.6 L 456.6 90.4 L 460.0 88.9 L 463.5 87.7 L 466.9 87.3 L 470.4 87.9 L 473.8 89.0 L 477.3 90.1 L 480.7 90.5 L 484.2 90.4 L 487.6 90.3 L 491.1 90.1 L 494.5 90.0 L 498.0 89.9 L 501.4 89.8 L 504.9 89.7 L 508.3 89.5 L 511.8 87.7 L 515.2 85.3 L 518.7 83.1 L 522.1 82.1 L 525.6 82.6 L 529.0 84.2 L 532.5 86.1 L 535.9 87.5 L 539.4 88.3 L 542.8 88.8 L 546.3 89.1 L 549.7 89.3 L 553.2 89.4 L 556.6 89.5 L 560.1 89.4 L 563.5 88.9 L 567.0 87.9 L 570.4 86.3 L 573.9 84.7 L 577.3 83.5 L 580.8 83.0 L 584.2 82.8 L 587.7 83.0 L 591.1 83.5 L 594.6 84.8 L 598.0 86.9 L 601.5 89.1 L 604.9 90.7 L 608.4 91.3 L 611.8 91.2 L 615.3 90.6 L 618.7 90.0 L 622.2 89.5 L 625.6 89.0 L 629.1 88.5 L 632.5 87.9 L 636.0 87.3 L 639.4 86.5 L 642.9 85.7 L 646.3 85.2 L 649.8 85.5 L 653.2 86.4 L 656.7 87.7 L 660.1 88.8 L 663.6 89.1 L 667.0 89.0 L 670.5 88.5 L 673.9 87.9 L 677.4 87.2 L 680.8 86.0 L 684.3 84.7 L 687.7 84.0 L 691.2 84.5 L 694.6 86.9 L 698.1 89.9 L 701.5 92.5 L 705.0 93.3 L 708.4 92.3 L 711.9 90.3 L 715.3 88.0 L 718.8 86.4 L 722.2 85.0 L 725.7 83.7 L 729.1 82.8 L 732.6 82.6 L 736.0 83.4 L 739.5 84.9 L 742.9 86.5 L 746.4 87.8 L 749.8 89.0 L 753.3 90.4 L 756.7 91.2 L 760.2 91.0 L 763.6 89.1 L 767.1 86.2 L 770.5 83.1 L 774.0 81.0 L 774 91.4 L 46 91.4 Z" fill="#0B1220" stroke="#3C4E6B" stroke-width="1.5" stroke-opacity="0.54" stroke-linejoin="round"/>
  <path d="M 46.0 106.4 L 49.5 106.5 L 52.9 106.5 L 56.4 106.5 L 59.8 106.5 L 63.3 106.5 L 66.7 106.4 L 70.2 106.4 L 73.6 106.3 L 77.1 106.3 L 80.5 106.2 L 84.0 106.1 L 87.4 106.0 L 90.9 105.9 L 94.3 105.8 L 97.8 105.6 L 101.2 105.5 L 104.7 105.4 L 108.1 105.2 L 111.6 105.1 L 115.0 104.9 L 118.5 104.8 L 121.9 104.6 L 125.4 104.4 L 128.8 104.3 L 132.3 104.1 L 135.7 104.0 L 139.2 103.8 L 142.6 103.6 L 146.1 103.5 L 149.5 103.3 L 153.0 103.2 L 156.4 103.0 L 159.9 102.9 L 163.3 102.8 L 166.8 102.7 L 170.2 102.6 L 173.7 102.5 L 177.1 102.4 L 180.6 102.3 L 184.0 102.2 L 187.5 102.2 L 190.9 102.1 L 194.4 102.1 L 197.8 102.1 L 201.3 102.1 L 204.7 102.1 L 208.2 102.1 L 211.6 102.1 L 215.1 102.2 L 218.5 102.2 L 222.0 102.3 L 225.4 102.4 L 228.9 102.5 L 232.3 102.6 L 235.8 102.7 L 239.2 102.8 L 242.7 102.9 L 246.1 103.0 L 249.6 103.2 L 253.0 103.3 L 256.5 103.5 L 259.9 103.6 L 263.4 103.8 L 266.8 103.9 L 270.3 104.1 L 273.7 104.3 L 277.2 104.4 L 280.6 104.6 L 284.1 104.7 L 287.5 104.9 L 291.0 105.1 L 294.4 105.2 L 297.9 105.4 L 301.3 105.5 L 304.8 105.6 L 308.2 105.8 L 311.7 105.9 L 315.1 106.0 L 318.6 106.1 L 322.0 106.2 L 325.5 106.3 L 328.9 106.3 L 332.4 106.4 L 335.8 106.4 L 339.3 106.5 L 342.7 106.5 L 346.2 106.5 L 349.6 106.5 L 353.1 106.5 L 356.5 106.4 L 360.0 106.4 L 363.4 106.3 L 366.9 106.3 L 370.3 106.2 L 373.8 106.1 L 377.2 106.0 L 380.7 105.9 L 384.1 105.8 L 387.6 105.7 L 391.0 105.6 L 394.5 105.4 L 397.9 105.3 L 401.4 105.1 L 404.8 105.0 L 408.3 104.8 L 411.7 104.7 L 415.2 104.5 L 418.6 104.3 L 422.1 104.2 L 425.5 104.0 L 429.0 103.9 L 432.4 103.7 L 435.9 103.5 L 439.3 103.4 L 442.8 103.2 L 446.2 103.1 L 449.7 103.0 L 453.1 102.6 L 456.6 101.4 L 460.0 99.8 L 463.5 98.6 L 466.9 98.3 L 470.4 99.0 L 473.8 100.3 L 477.3 101.5 L 480.7 102.2 L 484.2 102.1 L 487.6 102.1 L 491.1 102.1 L 494.5 102.1 L 498.0 102.1 L 501.4 102.1 L 504.9 102.2 L 508.3 102.1 L 511.8 100.3 L 515.2 97.8 L 518.7 95.6 L 522.1 94.6 L 525.6 95.4 L 529.0 97.2 L 532.5 99.4 L 535.9 101.0 L 539.4 102.0 L 542.8 102.7 L 546.3 103.2 L 549.7 103.5 L 553.2 103.7 L 556.6 103.9 L 560.1 103.8 L 563.5 103.3 L 567.0 102.1 L 570.4 100.2 L 573.9 98.3 L 577.3 97.0 L 580.8 96.8 L 584.2 97.3 L 587.7 98.2 L 591.1 99.3 L 594.6 100.5 L 598.0 102.2 L 601.5 103.8 L 604.9 105.0 L 608.4 105.5 L 611.8 105.5 L 615.3 105.0 L 618.7 104.5 L 622.2 104.0 L 625.6 103.4 L 629.1 102.6 L 632.5 101.7 L 636.0 100.3 L 639.4 98.3 L 642.9 96.2 L 646.3 94.8 L 649.8 94.7 L 653.2 95.9 L 656.7 97.8 L 660.1 99.6 L 663.6 101.1 L 667.0 102.5 L 670.5 103.8 L 673.9 104.7 L 677.4 104.8 L 680.8 103.7 L 684.3 102.2 L 687.7 100.9 L 691.2 100.6 L 694.6 101.6 L 698.1 103.1 L 701.5 104.4 L 705.0 104.5 L 708.4 103.7 L 711.9 102.2 L 715.3 100.5 L 718.8 98.9 L 722.2 96.8 L 725.7 94.5 L 729.1 92.6 L 732.6 92.0 L 736.0 92.8 L 739.5 94.6 L 742.9 96.6 L 746.4 98.2 L 749.8 99.8 L 753.3 101.4 L 756.7 102.5 L 760.2 102.3 L 763.6 100.3 L 767.1 96.9 L 770.5 93.5 L 774.0 91.2 L 774 104.3 L 46 104.3 Z" fill="#0B1220" stroke="#3C4E6B" stroke-width="1.5" stroke-opacity="0.58" stroke-linejoin="round"/>
  <path d="M 46.0 118.8 L 49.5 118.7 L 52.9 118.6 L 56.4 118.5 L 59.8 118.4 L 63.3 118.2 L 66.7 118.1 L 70.2 117.9 L 73.6 117.8 L 77.1 117.6 L 80.5 117.4 L 84.0 117.3 L 87.4 117.1 L 90.9 117.0 L 94.3 116.8 L 97.8 116.6 L 101.2 116.5 L 104.7 116.3 L 108.1 116.2 L 111.6 116.0 L 115.0 115.9 L 118.5 115.8 L 121.9 115.6 L 125.4 115.5 L 128.8 115.4 L 132.3 115.3 L 135.7 115.2 L 139.2 115.2 L 142.6 115.1 L 146.1 115.0 L 149.5 115.0 L 153.0 115.0 L 156.4 114.9 L 159.9 114.9 L 163.3 114.9 L 166.8 115.0 L 170.2 115.0 L 173.7 115.0 L 177.1 115.1 L 180.6 115.2 L 184.0 115.2 L 187.5 115.3 L 190.9 115.4 L 194.4 115.5 L 197.8 115.6 L 201.3 115.8 L 204.7 115.9 L 208.2 116.0 L 211.6 116.2 L 215.1 116.3 L 218.5 116.5 L 222.0 116.6 L 225.4 116.8 L 228.9 117.0 L 232.3 117.1 L 235.8 117.3 L 239.2 117.5 L 242.7 117.6 L 246.1 117.8 L 249.6 117.9 L 253.0 118.1 L 256.5 118.2 L 259.9 118.4 L 263.4 118.5 L 266.8 118.6 L 270.3 118.7 L 273.7 118.9 L 277.2 118.9 L 280.6 119.0 L 284.1 119.1 L 287.5 119.2 L 291.0 119.2 L 294.4 119.3 L 297.9 119.3 L 301.3 119.3 L 304.8 119.3 L 308.2 119.3 L 311.7 119.3 L 315.1 119.3 L 318.6 119.3 L 322.0 119.2 L 325.5 119.1 L 328.9 119.1 L 332.4 119.0 L 335.8 118.9 L 339.3 118.8 L 342.7 118.7 L 346.2 118.5 L 349.6 118.4 L 353.1 118.3 L 356.5 118.1 L 360.0 118.0 L 363.4 117.8 L 366.9 117.7 L 370.3 117.5 L 373.8 117.3 L 377.2 117.2 L 380.7 117.0 L 384.1 116.9 L 387.6 116.7 L 391.0 116.5 L 394.5 116.4 L 397.9 116.2 L 401.4 116.1 L 404.8 115.9 L 408.3 115.8 L 411.7 115.7 L 415.2 115.6 L 418.6 115.5 L 422.1 115.4 L 425.5 115.3 L 429.0 115.2 L 432.4 115.1 L 435.9 115.1 L 439.3 115.0 L 442.8 115.0 L 446.2 115.0 L 449.7 114.9 L 453.1 114.7 L 456.6 113.7 L 460.0 112.5 L 463.5 111.5 L 466.9 111.3 L 470.4 112.1 L 473.8 113.4 L 477.3 114.7 L 480.7 115.4 L 484.2 115.5 L 487.6 115.6 L 491.1 115.6 L 494.5 115.7 L 498.0 116.0 L 501.4 116.1 L 504.9 116.3 L 508.3 116.4 L 511.8 115.6 L 515.2 114.5 L 518.7 113.6 L 522.1 113.1 L 525.6 113.4 L 529.0 114.2 L 532.5 115.2 L 535.9 116.0 L 539.4 116.6 L 542.8 117.2 L 546.3 117.8 L 549.7 118.1 L 553.2 118.4 L 556.6 118.6 L 560.1 118.6 L 563.5 118.4 L 567.0 117.8 L 570.4 116.8 L 573.9 115.8 L 577.3 115.1 L 580.8 114.9 L 584.2 115.0 L 587.7 115.2 L 591.1 115.5 L 594.6 115.7 L 598.0 116.0 L 601.5 116.3 L 604.9 116.5 L 608.4 116.5 L 611.8 116.5 L 615.3 116.4 L 618.7 116.3 L 622.2 116.2 L 625.6 116.4 L 629.1 116.4 L 632.5 115.5 L 636.0 112.9 L 639.4 108.0 L 642.9 102.7 L 646.3 99.0 L 649.8 98.8 L 653.2 101.9 L 656.7 106.6 L 660.1 111.0 L 663.6 113.5 L 667.0 114.8 L 670.5 115.4 L 673.9 115.7 L 677.4 115.8 L 680.8 115.4 L 684.3 114.6 L 687.7 114.0 L 691.2 113.9 L 694.6 114.3 L 698.1 115.0 L 701.5 115.6 L 705.0 115.6 L 708.4 115.1 L 711.9 114.4 L 715.3 113.5 L 718.8 112.7 L 722.2 111.7 L 725.7 110.6 L 729.1 109.7 L 732.6 109.3 L 736.0 109.6 L 739.5 110.2 L 742.9 111.0 L 746.4 111.8 L 749.8 112.9 L 753.3 114.1 L 756.7 115.0 L 760.2 115.1 L 763.6 113.8 L 767.1 111.6 L 770.5 109.3 L 774.0 107.8 L 774 117.1 L 46 117.1 Z" fill="#0B1220" stroke="#3C4E6B" stroke-width="1.5" stroke-opacity="0.63" stroke-linejoin="round"/>
  <path d="M 46.0 130.0 L 49.5 129.8 L 52.9 129.6 L 56.4 129.5 L 59.8 129.3 L 63.3 129.2 L 66.7 129.0 L 70.2 128.9 L 73.6 128.7 L 77.1 128.6 L 80.5 128.5 L 84.0 128.4 L 87.4 128.3 L 90.9 128.2 L 94.3 128.1 L 97.8 128.0 L 101.2 127.9 L 104.7 127.9 L 108.1 127.9 L 111.6 127.8 L 115.0 127.8 L 118.5 127.8 L 121.9 127.8 L 125.4 127.8 L 128.8 127.9 L 132.3 127.9 L 135.7 128.0 L 139.2 128.0 L 142.6 128.1 L 146.1 128.2 L 149.5 128.3 L 153.0 128.4 L 156.4 128.5 L 159.9 128.6 L 163.3 128.8 L 166.8 128.9 L 170.2 129.1 L 173.7 129.2 L 177.1 129.4 L 180.6 129.5 L 184.0 129.7 L 187.5 129.8 L 190.9 130.0 L 194.4 130.2 L 197.8 130.3 L 201.3 130.5 L 204.7 130.6 L 208.2 130.8 L 211.6 131.0 L 215.1 131.1 L 218.5 131.2 L 222.0 131.4 L 225.4 131.5 L 228.9 131.6 L 232.3 131.7 L 235.8 131.8 L 239.2 131.9 L 242.7 132.0 L 246.1 132.0 L 249.6 132.1 L 253.0 132.1 L 256.5 132.2 L 259.9 132.2 L 263.4 132.2 L 266.8 132.2 L 270.3 132.2 L 273.7 132.1 L 277.2 132.1 L 280.6 132.1 L 284.1 132.0 L 287.5 131.9 L 291.0 131.8 L 294.4 131.7 L 297.9 131.6 L 301.3 131.5 L 304.8 131.4 L 308.2 131.3 L 311.7 131.1 L 315.1 131.0 L 318.6 130.8 L 322.0 130.7 L 325.5 130.5 L 328.9 130.4 L 332.4 130.2 L 335.8 130.0 L 339.3 129.9 L 342.7 129.7 L 346.2 129.5 L 349.6 129.4 L 353.1 129.2 L 356.5 129.1 L 360.0 128.9 L 363.4 128.8 L 366.9 128.7 L 370.3 128.5 L 373.8 128.4 L 377.2 128.3 L 380.7 128.2 L 384.1 128.1 L 387.6 128.0 L 391.0 128.0 L 394.5 127.9 L 397.9 127.9 L 401.4 127.8 L 404.8 127.8 L 408.3 127.8 L 411.7 127.8 L 415.2 127.8 L 418.6 127.8 L 422.1 127.9 L 425.5 127.9 L 429.0 128.0 L 432.4 128.1 L 435.9 128.2 L 439.3 128.2 L 442.8 128.4 L 446.2 128.5 L 449.7 128.6 L 453.1 128.5 L 456.6 127.7 L 460.0 126.7 L 463.5 125.9 L 466.9 125.9 L 470.4 126.7 L 473.8 128.0 L 477.3 129.2 L 480.7 129.9 L 484.2 130.1 L 487.6 130.3 L 491.1 130.2 L 494.5 130.3 L 498.0 130.5 L 501.4 130.7 L 504.9 131.0 L 508.3 131.2 L 511.8 131.3 L 515.2 131.4 L 518.7 131.6 L 522.1 131.7 L 525.6 131.4 L 529.0 131.1 L 532.5 130.7 L 535.9 130.6 L 539.4 130.8 L 542.8 131.1 L 546.3 131.6 L 549.7 131.9 L 553.2 132.0 L 556.6 132.1 L 560.1 132.2 L 563.5 132.2 L 567.0 132.1 L 570.4 132.0 L 573.9 131.9 L 577.3 131.7 L 580.8 131.4 L 584.2 131.0 L 587.7 130.6 L 591.1 130.0 L 594.6 129.2 L 598.0 128.1 L 601.5 127.0 L 604.9 126.2 L 608.4 125.9 L 611.8 126.0 L 615.3 126.3 L 618.7 126.6 L 622.2 127.0 L 625.6 128.1 L 629.1 128.9 L 632.5 128.2 L 636.0 124.4 L 639.4 116.8 L 642.9 108.3 L 646.3 102.4 L 649.8 102.1 L 653.2 107.4 L 656.7 115.1 L 660.1 122.1 L 663.6 125.7 L 667.0 127.0 L 670.5 127.1 L 673.9 126.9 L 677.4 127.1 L 680.8 127.4 L 684.3 127.6 L 687.7 127.8 L 691.2 127.8 L 694.6 127.8 L 698.1 127.8 L 701.5 127.8 L 705.0 127.8 L 708.4 127.8 L 711.9 127.9 L 715.3 127.9 L 718.8 128.0 L 722.2 128.0 L 725.7 128.1 L 729.1 128.2 L 732.6 128.3 L 736.0 127.9 L 739.5 127.5 L 742.9 127.1 L 746.4 127.1 L 749.8 127.6 L 753.3 128.4 L 756.7 129.2 L 760.2 129.4 L 763.6 128.7 L 767.1 127.6 L 770.5 126.5 L 774.0 125.7 L 774 130.0 L 46 130.0 Z" fill="#0B1220" stroke="#3C4E6B" stroke-width="1.5" stroke-opacity="0.68" stroke-linejoin="round"/>
  <path d="M 46.0 141.1 L 49.5 141.0 L 52.9 140.9 L 56.4 140.9 L 59.8 140.8 L 63.3 140.7 L 66.7 140.7 L 70.2 140.7 L 73.6 140.7 L 77.1 140.7 L 80.5 140.7 L 84.0 140.7 L 87.4 140.7 L 90.9 140.8 L 94.3 140.8 L 97.8 140.9 L 101.2 141.0 L 104.7 141.1 L 108.1 141.2 L 111.6 141.3 L 115.0 141.4 L 118.5 141.5 L 121.9 141.6 L 125.4 141.8 L 128.8 141.9 L 132.3 142.1 L 135.7 142.2 L 139.2 142.4 L 142.6 142.5 L 146.1 142.7 L 149.5 142.9 L 153.0 143.0 L 156.4 143.2 L 159.9 143.4 L 163.3 143.5 L 166.8 143.7 L 170.2 143.8 L 173.7 144.0 L 177.1 144.1 L 180.6 144.2 L 184.0 144.4 L 187.5 144.5 L 190.9 144.6 L 194.4 144.7 L 197.8 144.8 L 201.3 144.8 L 204.7 144.9 L 208.2 145.0 L 211.6 145.0 L 215.1 145.0 L 218.5 145.1 L 222.0 145.1 L 225.4 145.1 L 228.9 145.0 L 232.3 145.0 L 235.8 145.0 L 239.2 144.9 L 242.7 144.8 L 246.1 144.8 L 249.6 144.7 L 253.0 144.6 L 256.5 144.5 L 259.9 144.4 L 263.4 144.2 L 266.8 144.1 L 270.3 144.0 L 273.7 143.8 L 277.2 143.7 L 280.6 143.5 L 284.1 143.4 L 287.5 143.2 L 291.0 143.0 L 294.4 142.9 L 297.9 142.7 L 301.3 142.5 L 304.8 142.4 L 308.2 142.2 L 311.7 142.1 L 315.1 141.9 L 318.6 141.8 L 322.0 141.6 L 325.5 141.5 L 328.9 141.4 L 332.4 141.3 L 335.8 141.2 L 339.3 141.1 L 342.7 141.0 L 346.2 140.9 L 349.6 140.8 L 353.1 140.8 L 356.5 140.7 L 360.0 140.7 L 363.4 140.7 L 366.9 140.7 L 370.3 140.7 L 373.8 140.7 L 377.2 140.7 L 380.7 140.7 L 384.1 140.8 L 387.6 140.9 L 391.0 140.9 L 394.5 141.0 L 397.9 141.1 L 401.4 141.2 L 404.8 141.3 L 408.3 141.5 L 411.7 141.6 L 415.2 141.7 L 418.6 141.9 L 422.1 142.0 L 425.5 142.2 L 429.0 142.3 L 432.4 142.5 L 435.9 142.6 L 439.3 142.8 L 442.8 143.0 L 446.2 143.1 L 449.7 143.3 L 453.1 143.4 L 456.6 143.0 L 460.0 142.5 L 463.5 142.1 L 466.9 142.1 L 470.4 142.6 L 473.8 143.4 L 477.3 144.2 L 480.7 144.5 L 484.2 144.6 L 487.6 144.4 L 491.1 144.1 L 494.5 144.1 L 498.0 144.3 L 501.4 144.6 L 504.9 144.9 L 508.3 145.0 L 511.8 145.1 L 515.2 145.1 L 518.7 145.0 L 522.1 145.0 L 525.6 144.6 L 529.0 144.1 L 532.5 143.5 L 535.9 143.2 L 539.4 143.3 L 542.8 143.7 L 546.3 144.0 L 549.7 144.2 L 553.2 144.1 L 556.6 143.8 L 560.1 143.4 L 563.5 143.1 L 567.0 143.1 L 570.4 143.2 L 573.9 143.2 L 577.3 143.1 L 580.8 142.7 L 584.2 142.1 L 587.7 141.5 L 591.1 140.8 L 594.6 140.4 L 598.0 140.2 L 601.5 140.0 L 604.9 139.4 L 608.4 138.2 L 611.8 136.2 L 615.3 134.2 L 618.7 132.9 L 622.2 133.4 L 625.6 136.0 L 629.1 138.8 L 632.5 139.9 L 636.0 137.4 L 639.4 130.8 L 642.9 123.1 L 646.3 117.7 L 649.8 117.7 L 653.2 122.8 L 656.7 130.0 L 660.1 136.4 L 663.6 139.1 L 667.0 138.9 L 670.5 137.5 L 673.9 136.1 L 677.4 136.2 L 680.8 137.4 L 684.3 139.0 L 687.7 140.5 L 691.2 141.2 L 694.6 141.3 L 698.1 141.4 L 701.5 141.5 L 705.0 141.7 L 708.4 141.8 L 711.9 142.0 L 715.3 142.1 L 718.8 142.3 L 722.2 142.4 L 725.7 142.6 L 729.1 142.7 L 732.6 142.8 L 736.0 142.3 L 739.5 141.6 L 742.9 141.0 L 746.4 140.8 L 749.8 141.5 L 753.3 142.6 L 756.7 143.7 L 760.2 144.1 L 763.6 143.8 L 767.1 143.0 L 770.5 142.1 L 774.0 141.5 L 774 142.9 L 46 142.9 Z" fill="#0B1220" stroke="#FF5A36" stroke-width="1.5" stroke-opacity="0.72" stroke-linejoin="round"/>
  <path d="M 46.0 153.6 L 49.5 153.6 L 52.9 153.7 L 56.4 153.8 L 59.8 153.8 L 63.3 153.9 L 66.7 154.0 L 70.2 154.1 L 73.6 154.2 L 77.1 154.4 L 80.5 154.5 L 84.0 154.6 L 87.4 154.8 L 90.9 154.9 L 94.3 155.1 L 97.8 155.3 L 101.2 155.4 L 104.7 155.6 L 108.1 155.7 L 111.6 155.9 L 115.0 156.1 L 118.5 156.2 L 121.9 156.4 L 125.4 156.5 L 128.8 156.7 L 132.3 156.8 L 135.7 157.0 L 139.2 157.1 L 142.6 157.2 L 146.1 157.3 L 149.5 157.4 L 153.0 157.5 L 156.4 157.6 L 159.9 157.7 L 163.3 157.8 L 166.8 157.8 L 170.2 157.9 L 173.7 157.9 L 177.1 157.9 L 180.6 157.9 L 184.0 157.9 L 187.5 157.9 L 190.9 157.9 L 194.4 157.8 L 197.8 157.8 L 201.3 157.7 L 204.7 157.6 L 208.2 157.5 L 211.6 157.4 L 215.1 157.3 L 218.5 157.2 L 222.0 157.1 L 225.4 156.9 L 228.9 156.8 L 232.3 156.7 L 235.8 156.5 L 239.2 156.4 L 242.7 156.2 L 246.1 156.0 L 249.6 155.9 L 253.0 155.7 L 256.5 155.5 L 259.9 155.4 L 263.4 155.2 L 266.8 155.1 L 270.3 154.9 L 273.7 154.8 L 277.2 154.6 L 280.6 154.5 L 284.1 154.3 L 287.5 154.2 L 291.0 154.1 L 294.4 154.0 L 297.9 153.9 L 301.3 153.8 L 304.8 153.7 L 308.2 153.7 L 311.7 153.6 L 315.1 153.6 L 318.6 153.5 L 322.0 153.5 L 325.5 153.5 L 328.9 153.5 L 332.4 153.5 L 335.8 153.6 L 339.3 153.6 L 342.7 153.7 L 346.2 153.7 L 349.6 153.8 L 353.1 153.9 L 356.5 154.0 L 360.0 154.1 L 363.4 154.2 L 366.9 154.3 L 370.3 154.5 L 373.8 154.6 L 377.2 154.7 L 380.7 154.9 L 384.1 155.0 L 387.6 155.2 L 391.0 155.4 L 394.5 155.5 L 397.9 155.7 L 401.4 155.8 L 404.8 156.0 L 408.3 156.2 L 411.7 156.3 L 415.2 156.5 L 418.6 156.6 L 422.1 156.8 L 425.5 156.9 L 429.0 157.1 L 432.4 157.2 L 435.9 157.3 L 439.3 157.4 L 442.8 157.5 L 446.2 157.6 L 449.7 157.7 L 453.1 157.7 L 456.6 157.6 L 460.0 157.5 L 463.5 157.4 L 466.9 157.4 L 470.4 157.6 L 473.8 157.8 L 477.3 157.9 L 480.7 157.8 L 484.2 157.5 L 487.6 157.0 L 491.1 156.6 L 494.5 156.4 L 498.0 156.5 L 501.4 156.8 L 504.9 157.1 L 508.3 157.3 L 511.8 157.1 L 515.2 157.0 L 518.7 156.9 L 522.1 156.7 L 525.6 156.2 L 529.0 155.5 L 532.5 154.8 L 535.9 154.4 L 539.4 154.5 L 542.8 154.9 L 546.3 155.3 L 549.7 155.4 L 553.2 155.1 L 556.6 154.4 L 560.1 153.8 L 563.5 153.3 L 567.0 153.4 L 570.4 153.7 L 573.9 154.1 L 577.3 154.2 L 580.8 153.9 L 584.2 153.2 L 587.7 152.4 L 591.1 151.9 L 594.6 152.0 L 598.0 152.8 L 601.5 153.4 L 604.9 153.2 L 608.4 151.2 L 611.8 147.2 L 615.3 143.0 L 618.7 140.4 L 622.2 141.1 L 625.6 145.2 L 629.1 150.0 L 632.5 153.2 L 636.0 151.9 L 639.4 146.3 L 642.9 139.5 L 646.3 134.7 L 649.8 134.8 L 653.2 139.8 L 656.7 146.6 L 660.1 152.3 L 663.6 154.2 L 667.0 152.6 L 670.5 149.5 L 673.9 147.0 L 677.4 146.8 L 680.8 148.8 L 684.3 151.8 L 687.7 154.5 L 691.2 155.8 L 694.6 155.9 L 698.1 156.1 L 701.5 156.3 L 705.0 156.4 L 708.4 156.6 L 711.9 156.7 L 715.3 156.9 L 718.8 157.0 L 722.2 157.1 L 725.7 157.3 L 729.1 157.4 L 732.6 157.4 L 736.0 156.5 L 739.5 155.4 L 742.9 154.4 L 746.4 154.1 L 749.8 154.8 L 753.3 156.0 L 756.7 157.3 L 760.2 157.9 L 763.6 157.8 L 767.1 157.2 L 770.5 156.5 L 774.0 156.0 L 774 155.7 L 46 155.7 Z" fill="#0B1220" stroke="#FF5A36" stroke-width="1.5" stroke-opacity="0.77" stroke-linejoin="round"/>
  <path d="M 46.0 167.7 L 49.5 167.8 L 52.9 168.0 L 56.4 168.1 L 59.8 168.3 L 63.3 168.5 L 66.7 168.6 L 70.2 168.8 L 73.6 168.9 L 77.1 169.1 L 80.5 169.3 L 84.0 169.4 L 87.4 169.6 L 90.9 169.7 L 94.3 169.8 L 97.8 170.0 L 101.2 170.1 L 104.7 170.2 L 108.1 170.3 L 111.6 170.4 L 115.0 170.5 L 118.5 170.6 L 121.9 170.6 L 125.4 170.7 L 128.8 170.7 L 132.3 170.8 L 135.7 170.8 L 139.2 170.8 L 142.6 170.8 L 146.1 170.7 L 149.5 170.7 L 153.0 170.7 L 156.4 170.6 L 159.9 170.5 L 163.3 170.5 L 166.8 170.4 L 170.2 170.3 L 173.7 170.2 L 177.1 170.1 L 180.6 169.9 L 184.0 169.8 L 187.5 169.7 L 190.9 169.5 L 194.4 169.4 L 197.8 169.2 L 201.3 169.0 L 204.7 168.9 L 208.2 168.7 L 211.6 168.6 L 215.1 168.4 L 218.5 168.2 L 222.0 168.1 L 225.4 167.9 L 228.9 167.8 L 232.3 167.6 L 235.8 167.5 L 239.2 167.3 L 242.7 167.2 L 246.1 167.1 L 249.6 167.0 L 253.0 166.8 L 256.5 166.8 L 259.9 166.7 L 263.4 166.6 L 266.8 166.5 L 270.3 166.5 L 273.7 166.4 L 277.2 166.4 L 280.6 166.4 L 284.1 166.4 L 287.5 166.4 L 291.0 166.4 L 294.4 166.4 L 297.9 166.5 L 301.3 166.5 L 304.8 166.6 L 308.2 166.7 L 311.7 166.7 L 315.1 166.8 L 318.6 167.0 L 322.0 167.1 L 325.5 167.2 L 328.9 167.3 L 332.4 167.5 L 335.8 167.6 L 339.3 167.8 L 342.7 167.9 L 346.2 168.1 L 349.6 168.2 L 353.1 168.4 L 356.5 168.6 L 360.0 168.7 L 363.4 168.9 L 366.9 169.0 L 370.3 169.2 L 373.8 169.4 L 377.2 169.5 L 380.7 169.7 L 384.1 169.8 L 387.6 169.9 L 391.0 170.0 L 394.5 170.2 L 397.9 170.3 L 401.4 170.4 L 404.8 170.5 L 408.3 170.5 L 411.7 170.6 L 415.2 170.7 L 418.6 170.7 L 422.1 170.7 L 425.5 170.8 L 429.0 170.8 L 432.4 170.8 L 435.9 170.8 L 439.3 170.7 L 442.8 170.7 L 446.2 170.6 L 449.7 170.6 L 453.1 170.5 L 456.6 170.4 L 460.0 170.3 L 463.5 170.2 L 466.9 170.1 L 470.4 170.0 L 473.8 169.8 L 477.3 169.7 L 480.7 169.5 L 484.2 168.9 L 487.6 168.2 L 491.1 167.5 L 494.5 167.2 L 498.0 167.3 L 501.4 167.7 L 504.9 168.1 L 508.3 168.3 L 511.8 168.1 L 515.2 168.0 L 518.7 167.8 L 522.1 167.7 L 525.6 167.0 L 529.0 166.2 L 532.5 165.4 L 535.9 164.9 L 539.4 164.7 L 542.8 164.7 L 546.3 164.8 L 549.7 164.9 L 553.2 164.9 L 556.6 165.0 L 560.1 165.0 L 563.5 165.2 L 567.0 165.4 L 570.4 165.8 L 573.9 166.1 L 577.3 166.3 L 580.8 166.2 L 584.2 165.7 L 587.7 165.3 L 591.1 165.1 L 594.6 165.4 L 598.0 166.3 L 601.5 166.7 L 604.9 166.8 L 608.4 165.6 L 611.8 162.7 L 615.3 159.4 L 618.7 157.0 L 622.2 156.6 L 625.6 157.8 L 629.1 159.5 L 632.5 160.7 L 636.0 160.4 L 639.4 158.5 L 642.9 156.3 L 646.3 155.1 L 649.8 156.0 L 653.2 159.3 L 656.7 163.4 L 660.1 166.7 L 663.6 167.8 L 667.0 166.7 L 670.5 164.6 L 673.9 163.0 L 677.4 163.1 L 680.8 164.8 L 684.3 167.2 L 687.7 169.4 L 691.2 170.3 L 694.6 170.4 L 698.1 170.5 L 701.5 170.6 L 705.0 170.6 L 708.4 170.4 L 711.9 170.1 L 715.3 169.8 L 718.8 169.8 L 722.2 170.1 L 725.7 170.5 L 729.1 170.7 L 732.6 170.6 L 736.0 169.8 L 739.5 168.6 L 742.9 167.6 L 746.4 167.2 L 749.8 167.6 L 753.3 168.6 L 756.7 169.5 L 760.2 170.0 L 763.6 169.9 L 767.1 169.4 L 770.5 168.9 L 774.0 168.4 L 774 168.6 L 46 168.6 Z" fill="#0B1220" stroke="#FF5A36" stroke-width="1.5" stroke-opacity="0.81" stroke-linejoin="round"/>
  <path d="M 46.0 182.4 L 49.5 182.6 L 52.9 182.7 L 56.4 182.8 L 59.8 183.0 L 63.3 183.1 L 66.7 183.2 L 70.2 183.3 L 73.6 183.4 L 77.1 183.4 L 80.5 183.5 L 84.0 183.5 L 87.4 183.6 L 90.9 183.6 L 94.3 183.6 L 97.8 183.6 L 101.2 183.6 L 104.7 183.6 L 108.1 183.6 L 111.6 183.5 L 115.0 183.5 L 118.5 183.4 L 121.9 183.3 L 125.4 183.2 L 128.8 183.1 L 132.3 183.0 L 135.7 182.9 L 139.2 182.8 L 142.6 182.6 L 146.1 182.5 L 149.5 182.4 L 153.0 182.2 L 156.4 182.0 L 159.9 181.9 L 163.3 181.7 L 166.8 181.6 L 170.2 181.4 L 173.7 181.2 L 177.1 181.1 L 180.6 180.9 L 184.0 180.8 L 187.5 180.6 L 190.9 180.5 L 194.4 180.3 L 197.8 180.2 L 201.3 180.0 L 204.7 179.9 L 208.2 179.8 L 211.6 179.7 L 215.1 179.6 L 218.5 179.5 L 222.0 179.4 L 225.4 179.4 L 228.9 179.3 L 232.3 179.3 L 235.8 179.3 L 239.2 179.2 L 242.7 179.2 L 246.1 179.2 L 249.6 179.3 L 253.0 179.3 L 256.5 179.3 L 259.9 179.4 L 263.4 179.5 L 266.8 179.5 L 270.3 179.6 L 273.7 179.7 L 277.2 179.8 L 280.6 179.9 L 284.1 180.1 L 287.5 180.2 L 291.0 180.3 L 294.4 180.5 L 297.9 180.6 L 301.3 180.8 L 304.8 180.9 L 308.2 181.1 L 311.7 181.3 L 315.1 181.4 L 318.6 181.6 L 322.0 181.8 L 325.5 181.9 L 328.9 182.1 L 332.4 182.2 L 335.8 182.4 L 339.3 182.5 L 342.7 182.7 L 346.2 182.8 L 349.6 182.9 L 353.1 183.0 L 356.5 183.1 L 360.0 183.2 L 363.4 183.3 L 366.9 183.4 L 370.3 183.5 L 373.8 183.5 L 377.2 183.6 L 380.7 183.6 L 384.1 183.6 L 387.6 183.6 L 391.0 183.6 L 394.5 183.6 L 397.9 183.6 L 401.4 183.5 L 404.8 183.5 L 408.3 183.4 L 411.7 183.3 L 415.2 183.3 L 418.6 183.2 L 422.1 183.1 L 425.5 182.9 L 429.0 182.8 L 432.4 182.7 L 435.9 182.6 L 439.3 182.4 L 442.8 182.3 L 446.2 182.1 L 449.7 182.0 L 453.1 181.8 L 456.6 181.6 L 460.0 181.5 L 463.5 181.3 L 466.9 181.1 L 470.4 181.0 L 473.8 180.8 L 477.3 180.7 L 480.7 180.4 L 484.2 179.7 L 487.6 178.8 L 491.1 178.0 L 494.5 177.7 L 498.0 178.0 L 501.4 178.6 L 504.9 179.2 L 508.3 179.5 L 511.8 179.5 L 515.2 179.4 L 518.7 179.3 L 522.1 179.3 L 525.6 178.7 L 529.0 177.8 L 532.5 177.0 L 535.9 176.3 L 539.4 175.7 L 542.8 175.1 L 546.3 174.8 L 549.7 174.8 L 553.2 175.5 L 556.6 176.7 L 560.1 178.1 L 563.5 179.1 L 567.0 179.6 L 570.4 179.8 L 573.9 179.9 L 577.3 179.9 L 580.8 180.0 L 584.2 180.0 L 587.7 180.1 L 591.1 180.1 L 594.6 180.4 L 598.0 180.9 L 601.5 181.2 L 604.9 181.4 L 608.4 181.2 L 611.8 180.7 L 615.3 179.9 L 618.7 178.5 L 622.2 176.0 L 625.6 172.0 L 629.1 167.9 L 632.5 165.3 L 636.0 165.6 L 639.4 168.6 L 642.9 172.9 L 646.3 176.6 L 649.8 178.6 L 653.2 179.3 L 656.7 179.4 L 660.1 179.4 L 663.6 179.7 L 667.0 180.0 L 670.5 180.2 L 673.9 180.6 L 677.4 181.1 L 680.8 181.8 L 684.3 182.6 L 687.7 183.3 L 691.2 183.6 L 694.6 183.5 L 698.1 183.4 L 701.5 183.4 L 705.0 183.2 L 708.4 182.4 L 711.9 181.5 L 715.3 180.7 L 718.8 180.4 L 722.2 180.8 L 725.7 181.5 L 729.1 182.2 L 732.6 182.3 L 736.0 181.7 L 739.5 180.8 L 742.9 179.9 L 746.4 179.5 L 749.8 179.7 L 753.3 180.2 L 756.7 180.8 L 760.2 181.0 L 763.6 180.9 L 767.1 180.6 L 770.5 180.3 L 774.0 180.0 L 774 181.4 L 46 181.4 Z" fill="#0B1220" stroke="#FF5A36" stroke-width="1.5" stroke-opacity="0.86" stroke-linejoin="round"/>
  <path d="M 46.0 196.4 L 49.5 196.5 L 52.9 196.5 L 56.4 196.5 L 59.8 196.5 L 63.3 196.5 L 66.7 196.4 L 70.2 196.4 L 73.6 196.3 L 77.1 196.2 L 80.5 196.2 L 84.0 196.1 L 87.4 196.0 L 90.9 195.9 L 94.3 195.7 L 97.8 195.6 L 101.2 195.5 L 104.7 195.3 L 108.1 195.2 L 111.6 195.0 L 115.0 194.9 L 118.5 194.7 L 121.9 194.6 L 125.4 194.4 L 128.8 194.2 L 132.3 194.1 L 135.7 193.9 L 139.2 193.8 L 142.6 193.6 L 146.1 193.4 L 149.5 193.3 L 153.0 193.2 L 156.4 193.0 L 159.9 192.9 L 163.3 192.8 L 166.8 192.6 L 170.2 192.5 L 173.7 192.4 L 177.1 192.4 L 180.6 192.3 L 184.0 192.2 L 187.5 192.2 L 190.9 192.1 L 194.4 192.1 L 197.8 192.1 L 201.3 192.1 L 204.7 192.1 L 208.2 192.1 L 211.6 192.1 L 215.1 192.2 L 218.5 192.2 L 222.0 192.3 L 225.4 192.4 L 228.9 192.5 L 232.3 192.6 L 235.8 192.7 L 239.2 192.8 L 242.7 192.9 L 246.1 193.1 L 249.6 193.2 L 253.0 193.3 L 256.5 193.5 L 259.9 193.7 L 263.4 193.8 L 266.8 194.0 L 270.3 194.1 L 273.7 194.3 L 277.2 194.5 L 280.6 194.6 L 284.1 194.8 L 287.5 194.9 L 291.0 195.1 L 294.4 195.2 L 297.9 195.4 L 301.3 195.5 L 304.8 195.7 L 308.2 195.8 L 311.7 195.9 L 315.1 196.0 L 318.6 196.1 L 322.0 196.2 L 325.5 196.3 L 328.9 196.3 L 332.4 196.4 L 335.8 196.4 L 339.3 196.5 L 342.7 196.5 L 346.2 196.5 L 349.6 196.5 L 353.1 196.5 L 356.5 196.4 L 360.0 196.4 L 363.4 196.3 L 366.9 196.3 L 370.3 196.2 L 373.8 196.1 L 377.2 196.0 L 380.7 195.9 L 384.1 195.8 L 387.6 195.7 L 391.0 195.5 L 394.5 195.4 L 397.9 195.3 L 401.4 195.1 L 404.8 195.0 L 408.3 194.8 L 411.7 194.6 L 415.2 194.5 L 418.6 194.3 L 422.1 194.1 L 425.5 194.0 L 429.0 193.8 L 432.4 193.7 L 435.9 193.5 L 439.3 193.4 L 442.8 193.2 L 446.2 193.1 L 449.7 192.9 L 453.1 192.8 L 456.6 192.7 L 460.0 192.6 L 463.5 192.5 L 466.9 192.4 L 470.4 192.3 L 473.8 192.3 L 477.3 192.2 L 480.7 192.1 L 484.2 191.3 L 487.6 190.4 L 491.1 189.6 L 494.5 189.4 L 498.0 189.9 L 501.4 190.8 L 504.9 191.7 L 508.3 192.2 L 511.8 192.3 L 515.2 192.2 L 518.7 191.9 L 522.1 191.7 L 525.6 191.3 L 529.0 190.9 L 532.5 190.5 L 535.9 190.1 L 539.4 189.4 L 542.8 188.7 L 546.3 188.1 L 549.7 188.1 L 553.2 189.1 L 556.6 190.9 L 560.1 192.7 L 563.5 194.1 L 567.0 194.4 L 570.4 194.6 L 573.9 194.7 L 577.3 194.6 L 580.8 194.8 L 584.2 195.0 L 587.7 195.3 L 591.1 195.5 L 594.6 195.6 L 598.0 195.7 L 601.5 195.9 L 604.9 196.0 L 608.4 196.1 L 611.8 196.2 L 615.3 196.2 L 618.7 196.3 L 622.2 192.9 L 625.6 185.9 L 629.1 178.4 L 632.5 173.5 L 636.0 174.1 L 639.4 180.0 L 642.9 188.0 L 646.3 194.7 L 649.8 196.4 L 653.2 196.1 L 656.7 193.7 L 660.1 191.6 L 663.6 191.3 L 667.0 192.3 L 670.5 193.9 L 673.9 195.3 L 677.4 195.7 L 680.8 195.6 L 684.3 195.5 L 687.7 195.3 L 691.2 195.2 L 694.6 195.0 L 698.1 194.8 L 701.5 194.5 L 705.0 194.0 L 708.4 193.1 L 711.9 192.1 L 715.3 191.3 L 718.8 191.0 L 722.2 191.4 L 725.7 192.2 L 729.1 193.0 L 732.6 193.3 L 736.0 193.0 L 739.5 192.4 L 742.9 191.8 L 746.4 191.5 L 749.8 191.6 L 753.3 191.9 L 756.7 192.2 L 760.2 192.3 L 763.6 192.3 L 767.1 192.2 L 770.5 192.2 L 774.0 192.1 L 774 194.3 L 46 194.3 Z" fill="#0B1220" stroke="#FF5A36" stroke-width="1.5" stroke-opacity="0.91" stroke-linejoin="round"/>
  <path d="M 46.0 208.8 L 49.5 208.7 L 52.9 208.6 L 56.4 208.5 L 59.8 208.3 L 63.3 208.2 L 66.7 208.0 L 70.2 207.9 L 73.6 207.7 L 77.1 207.6 L 80.5 207.4 L 84.0 207.2 L 87.4 207.1 L 90.9 206.9 L 94.3 206.8 L 97.8 206.6 L 101.2 206.4 L 104.7 206.3 L 108.1 206.1 L 111.6 206.0 L 115.0 205.9 L 118.5 205.7 L 121.9 205.6 L 125.4 205.5 L 128.8 205.4 L 132.3 205.3 L 135.7 205.2 L 139.2 205.1 L 142.6 205.1 L 146.1 205.0 L 149.5 205.0 L 153.0 205.0 L 156.4 204.9 L 159.9 204.9 L 163.3 205.0 L 166.8 205.0 L 170.2 205.0 L 173.7 205.1 L 177.1 205.1 L 180.6 205.2 L 184.0 205.3 L 187.5 205.3 L 190.9 205.4 L 194.4 205.6 L 197.8 205.7 L 201.3 205.8 L 204.7 205.9 L 208.2 206.1 L 211.6 206.2 L 215.1 206.4 L 218.5 206.5 L 222.0 206.7 L 225.4 206.8 L 228.9 207.0 L 232.3 207.2 L 235.8 207.3 L 239.2 207.5 L 242.7 207.7 L 246.1 207.8 L 249.6 208.0 L 253.0 208.1 L 256.5 208.3 L 259.9 208.4 L 263.4 208.5 L 266.8 208.7 L 270.3 208.8 L 273.7 208.9 L 277.2 209.0 L 280.6 209.1 L 284.1 209.1 L 287.5 209.2 L 291.0 209.2 L 294.4 209.3 L 297.9 209.3 L 301.3 209.3 L 304.8 209.3 L 308.2 209.3 L 311.7 209.3 L 315.1 209.3 L 318.6 209.2 L 322.0 209.2 L 325.5 209.1 L 328.9 209.0 L 332.4 209.0 L 335.8 208.9 L 339.3 208.8 L 342.7 208.6 L 346.2 208.5 L 349.6 208.4 L 353.1 208.2 L 356.5 208.1 L 360.0 207.9 L 363.4 207.8 L 366.9 207.6 L 370.3 207.5 L 373.8 207.3 L 377.2 207.1 L 380.7 207.0 L 384.1 206.8 L 387.6 206.7 L 391.0 206.5 L 394.5 206.3 L 397.9 206.2 L 401.4 206.1 L 404.8 205.9 L 408.3 205.8 L 411.7 205.7 L 415.2 205.5 L 418.6 205.4 L 422.1 205.3 L 425.5 205.2 L 429.0 205.2 L 432.4 205.1 L 435.9 205.0 L 439.3 205.0 L 442.8 205.0 L 446.2 205.0 L 449.7 204.9 L 453.1 204.9 L 456.6 205.0 L 460.0 205.0 L 463.5 205.0 L 466.9 205.1 L 470.4 205.1 L 473.8 205.2 L 477.3 205.3 L 480.7 205.3 L 484.2 204.6 L 487.6 203.7 L 491.1 203.0 L 494.5 202.8 L 498.0 203.5 L 501.4 204.8 L 504.9 205.9 L 508.3 206.5 L 511.8 206.0 L 515.2 205.0 L 518.7 204.1 L 522.1 203.6 L 525.6 204.0 L 529.0 204.8 L 532.5 205.7 L 535.9 206.3 L 539.4 206.3 L 542.8 205.9 L 546.3 205.6 L 549.7 205.6 L 553.2 206.2 L 556.6 207.1 L 560.1 208.1 L 563.5 208.8 L 567.0 208.9 L 570.4 209.0 L 573.9 209.1 L 577.3 209.1 L 580.8 209.1 L 584.2 209.2 L 587.7 209.3 L 591.1 209.3 L 594.6 209.3 L 598.0 209.3 L 601.5 209.3 L 604.9 209.3 L 608.4 209.1 L 611.8 209.0 L 615.3 208.6 L 618.7 207.2 L 622.2 204.1 L 625.6 198.5 L 629.1 192.7 L 632.5 189.0 L 636.0 189.7 L 639.4 194.6 L 642.9 201.2 L 646.3 206.6 L 649.8 208.0 L 653.2 207.9 L 656.7 205.9 L 660.1 204.2 L 663.6 203.8 L 667.0 204.5 L 670.5 205.5 L 673.9 206.5 L 677.4 206.7 L 680.8 206.6 L 684.3 206.4 L 687.7 206.3 L 691.2 206.0 L 694.6 205.5 L 698.1 204.8 L 701.5 204.3 L 705.0 203.9 L 708.4 203.7 L 711.9 203.6 L 715.3 203.7 L 718.8 203.8 L 722.2 204.1 L 725.7 204.5 L 729.1 204.8 L 732.6 205.0 L 736.0 204.9 L 739.5 204.7 L 742.9 204.4 L 746.4 204.3 L 749.8 204.5 L 753.3 204.7 L 756.7 204.9 L 760.2 205.1 L 763.6 205.2 L 767.1 205.3 L 770.5 205.4 L 774.0 205.5 L 774 207.1 L 46 207.1 Z" fill="#0B1220" stroke="#FF5A36" stroke-width="1.5" stroke-opacity="0.95" stroke-linejoin="round"/>
  <path d="M 46.0 219.9 L 49.5 219.8 L 52.9 219.6 L 56.4 219.4 L 59.8 219.3 L 63.3 219.1 L 66.7 219.0 L 70.2 218.8 L 73.6 218.7 L 77.1 218.6 L 80.5 218.5 L 84.0 218.3 L 87.4 218.2 L 90.9 218.1 L 94.3 218.1 L 97.8 218.0 L 101.2 217.9 L 104.7 217.9 L 108.1 217.8 L 111.6 217.8 L 115.0 217.8 L 118.5 217.8 L 121.9 217.8 L 125.4 217.8 L 128.8 217.9 L 132.3 217.9 L 135.7 218.0 L 139.2 218.0 L 142.6 218.1 L 146.1 218.2 L 149.5 218.3 L 153.0 218.4 L 156.4 218.5 L 159.9 218.7 L 163.3 218.8 L 166.8 218.9 L 170.2 219.1 L 173.7 219.2 L 177.1 219.4 L 180.6 219.6 L 184.0 219.7 L 187.5 219.9 L 190.9 220.0 L 194.4 220.2 L 197.8 220.4 L 201.3 220.5 L 204.7 220.7 L 208.2 220.8 L 211.6 221.0 L 215.1 221.1 L 218.5 221.3 L 222.0 221.4 L 225.4 221.5 L 228.9 221.6 L 232.3 221.7 L 235.8 221.8 L 239.2 221.9 L 242.7 222.0 L 246.1 222.1 L 249.6 222.1 L 253.0 222.2 L 256.5 222.2 L 259.9 222.2 L 263.4 222.2 L 266.8 222.2 L 270.3 222.2 L 273.7 222.1 L 277.2 222.1 L 280.6 222.0 L 284.1 222.0 L 287.5 221.9 L 291.0 221.8 L 294.4 221.7 L 297.9 221.6 L 301.3 221.5 L 304.8 221.4 L 308.2 221.2 L 311.7 221.1 L 315.1 220.9 L 318.6 220.8 L 322.0 220.6 L 325.5 220.5 L 328.9 220.3 L 332.4 220.2 L 335.8 220.0 L 339.3 219.8 L 342.7 219.7 L 346.2 219.5 L 349.6 219.3 L 353.1 219.2 L 356.5 219.0 L 360.0 218.9 L 363.4 218.8 L 366.9 218.6 L 370.3 218.5 L 373.8 218.4 L 377.2 218.3 L 380.7 218.2 L 384.1 218.1 L 387.6 218.0 L 391.0 218.0 L 394.5 217.9 L 397.9 217.9 L 401.4 217.8 L 404.8 217.8 L 408.3 217.8 L 411.7 217.8 L 415.2 217.8 L 418.6 217.9 L 422.1 217.9 L 425.5 217.9 L 429.0 218.0 L 432.4 218.1 L 435.9 218.2 L 439.3 218.3 L 442.8 218.4 L 446.2 218.5 L 449.7 218.6 L 453.1 218.7 L 456.6 218.9 L 460.0 219.0 L 463.5 219.2 L 466.9 219.3 L 470.4 219.5 L 473.8 219.6 L 477.3 219.8 L 480.7 219.9 L 484.2 219.1 L 487.6 218.1 L 491.1 217.3 L 494.5 217.2 L 498.0 218.1 L 501.4 219.5 L 504.9 220.8 L 508.3 221.2 L 511.8 220.1 L 515.2 218.1 L 518.7 216.3 L 522.1 215.7 L 525.6 216.6 L 529.0 218.5 L 532.5 220.6 L 535.9 222.0 L 539.4 222.1 L 542.8 222.1 L 546.3 222.2 L 549.7 222.2 L 553.2 222.2 L 556.6 222.2 L 560.1 222.2 L 563.5 222.2 L 567.0 222.1 L 570.4 222.1 L 573.9 222.0 L 577.3 221.9 L 580.8 221.8 L 584.2 221.7 L 587.7 221.6 L 591.1 221.5 L 594.6 221.4 L 598.0 221.3 L 601.5 221.1 L 604.9 221.0 L 608.4 220.4 L 611.8 219.5 L 615.3 218.2 L 618.7 216.5 L 622.2 213.9 L 625.6 209.8 L 629.1 205.8 L 632.5 203.4 L 636.0 204.2 L 639.4 208.2 L 642.9 213.4 L 646.3 217.8 L 649.8 219.0 L 653.2 218.8 L 656.7 217.7 L 660.1 216.5 L 663.6 216.2 L 667.0 216.6 L 670.5 217.3 L 673.9 217.9 L 677.4 218.0 L 680.8 218.0 L 684.3 217.9 L 687.7 217.9 L 691.2 217.7 L 694.6 216.9 L 698.1 215.9 L 701.5 215.1 L 705.0 215.0 L 708.4 215.5 L 711.9 216.5 L 715.3 217.5 L 718.8 218.0 L 722.2 218.1 L 725.7 218.1 L 729.1 218.2 L 732.6 218.3 L 736.0 218.4 L 739.5 218.6 L 742.9 218.7 L 746.4 218.8 L 749.8 219.0 L 753.3 219.1 L 756.7 219.3 L 760.2 219.4 L 763.6 219.6 L 767.1 219.7 L 770.5 219.9 L 774.0 220.1 L 774 220.0 L 46 220.0 Z" fill="#0B1220" stroke="#FF5A36" stroke-width="1.5" stroke-opacity="1.00" stroke-linejoin="round"/>
  <text x="762" y="236" text-anchor="end" font-family="ui-monospace, SFMono-Regular, Menlo, monospace" font-size="11" letter-spacing="1" fill="#3C4E6B" opacity="0.75">a year of building</text>
</svg>
